<svg xmlns="http://www.w3.org/2000/svg" x="0px" y="0px"
width="64" height="64"
viewBox="0 0 172 172"
style=" fill:#000000;"><g fill="none" fill-rule="nonzero" stroke="none" stroke-width="1" stroke-linecap="butt" stroke-linejoin="miter" stroke-miterlimit="10" stroke-dasharray="" stroke-dashoffset="0" font-family="none" font-weight="none" font-size="none" text-anchor="none" style="mix-blend-mode: normal"><path d="M0,172v-172h172v172z" fill="none"></path><g><path d="M59.125,43l-13.4375,-2.6875l-8.0625,-10.75l-3.78602,-5.04578c-25.36472,21.54653 -34.90739,56.45053 -24.03297,87.90477l14.38148,-12.98398l8.0625,-5.375l8.0625,5.375l26.875,-5.375l5.375,-13.4375l-2.6875,-18.8125z" fill="#ec4c8b"></path><path d="M105.05773,7.63922l-19.05773,13.86078v21.5l21.5,24.1875l5.375,-2.6875l5.375,10.75l-5.375,5.375l18.8125,8.0625l16.125,13.4375l16.98164,1.04141c1.22064,-5.64048 1.83442,-11.39536 1.83086,-17.16641c0,-37.9643 -26.23672,-69.79773 -61.56727,-78.36078z" fill="#ec4c8b"></path><path d="M112.875,104.8125l-18.8125,2.6875l-8.0625,10.75l2.6875,10.75l13.4375,5.375l5.375,5.375l8.0625,-5.375l5.375,-8.0625l-8.0625,-5.375z" fill="#ec4c8b"></path><path d="M56.4375,129l-10.75,-5.375l-18.94352,17.04883c11.7169,12.71964 27.21845,21.32795 44.20937,24.55031l1.60914,-14.72414v-10.75l-10.75,-2.6875z" fill="#ec4c8b"></path><g fill="#ffffff"><path d="M144.91,27.09c-21.00881,-21.23355 -51.77739,-29.59504 -80.64353,-21.91522c-28.86614,7.67982 -51.41187,30.22555 -59.09169,59.09169c-7.67982,28.86614 0.68167,59.63472 21.91522,80.64353c21.00881,21.23355 51.77739,29.59504 80.64353,21.91522c28.86614,-7.67982 51.41187,-30.22555 59.09169,-59.09169c7.67982,-28.86614 -0.68167,-59.63472 -21.91522,-80.64353zM8.0625,86c-0.05675,-20.6816 8.16299,-40.52631 22.82695,-55.11055c0.83313,-0.83312 1.68305,-1.63937 2.54641,-2.43219l10.10164,13.46773c0.39652,0.52875 0.97434,0.89243 1.62258,1.02125l12.2382,2.44898l9.89,17.30414l2.51281,17.59305l-4.56875,11.42188l-24.35547,4.87109l-7.13531,-4.76023c-0.90345,-0.60136 -2.07967,-0.60136 -2.98312,0l-8.0625,5.375c-0.10809,0.07393 -0.21132,0.15472 -0.30906,0.24188l-11.29086,10.1957c-2.01777,-7.03529 -3.03889,-14.31881 -3.03352,-21.63773zM69.875,150.35219l-1.2732,11.64695c-14.29451,-3.253 -27.37208,-10.49657 -37.71234,-20.88859c-0.09742,-0.09742 -0.19148,-0.1982 -0.28555,-0.29563l15.52031,-13.96828l8.47234,4.23953l4.97859,7.46789c0.37225,0.55524 0.93724,0.95265 1.58563,1.11531l8.71422,2.18023zM141.11055,141.11055c-14.58424,14.66396 -34.42895,22.8837 -55.11055,22.82695c-4.05147,-0.0005 -8.0969,-0.31273 -12.10047,-0.93391l1.33367,-12.21133c0.01062,-0.09707 0.01622,-0.19462 0.0168,-0.29227v-10.75c-0.00019,-1.23309 -0.8395,-2.30785 -2.03578,-2.60688l-9.74219,-2.43555l-4.79719,-7.19914c-0.26121,-0.38794 -0.61743,-0.70251 -1.03469,-0.91375l-10.75,-5.375c-0.98844,-0.49417 -2.17863,-0.3329 -2.99992,0.40648l-16.94133,15.2482c-6.04641,-6.98452 -10.7931,-14.99542 -14.01531,-23.65336l12.91008,-11.65703l6.40633,-4.27312l6.57094,4.38398c0.59409,0.39393 1.32005,0.53646 2.01898,0.39641l26.875,-5.375c0.89019,-0.17828 1.63045,-0.79347 1.96859,-1.63602l5.375,-13.4375c0.17493,-0.43668 0.2317,-0.91174 0.16461,-1.37734l-2.6875,-18.8125c-0.04733,-0.33576 -0.1579,-0.6595 -0.32586,-0.95406l-10.75,-18.8125c-0.38564,-0.67474 -1.04499,-1.14903 -1.80734,-1.30008l-12.42969,-2.4893l-9.6918,-12.9168c13.76232,-10.98476 30.86042,-16.94563 48.46906,-16.89766c4.19677,0.0007 8.38682,0.33545 12.53047,1.00109l-14.11273,10.26289c-0.6948,0.50607 -1.10561,1.31395 -1.10523,2.17352v21.5c-0.0001,0.65769 0.24139,1.2925 0.67859,1.78383l21.5,24.1875c0.80709,0.90908 2.1236,1.16384 3.21156,0.62148l2.96969,-1.4882l3.30898,6.61461l-4.00773,4.00437c-0.63049,0.6308 -0.90698,1.53328 -0.73803,2.409c0.16895,0.87572 0.76133,1.61057 1.58124,1.96155l18.45305,7.90797l15.82266,13.18891c0.43944,0.36587 0.98455,0.58133 1.55539,0.61477l13.80031,0.84656c-3.4827,13.42694 -10.5064,25.67259 -20.33766,35.4582zM148.85727,99.49797l-15.44977,-12.87648c-0.19979,-0.16589 -0.42274,-0.3017 -0.6618,-0.40313l-15.16422,-6.50039l2.56992,-2.56656c0.81722,-0.81907 1.02006,-2.06854 0.50391,-3.10406l-5.375,-10.75c-0.66537,-1.32707 -2.27943,-1.86509 -3.60797,-1.20266l-3.5307,1.76703l-19.45414,-21.88297v-19.11148l16.94133,-12.32219c34.33419,8.9645 58.29385,39.96973 58.30867,75.45492c0.00108,4.81047 -0.43859,9.61093 -1.31352,14.34117z"></path><path d="M122.42805,124.0765l-6.86555,-4.57715v-14.68685c-0.00006,-0.77902 -0.33816,-1.51969 -0.92668,-2.03009c-0.58852,-0.51041 -1.36957,-0.74033 -2.14077,-0.63019l-18.8125,2.6875c-0.70572,0.10044 -1.34253,0.4774 -1.77005,1.04779l-8.0625,10.75c-0.48552,0.64741 -0.65347,1.47914 -0.45721,2.26422l2.6875,10.75c0.20925,0.83726 0.80786,1.52309 1.60914,1.84363l12.9252,5.17008l4.98498,4.98498c0.9058,0.90583 2.32503,1.04643 3.39095,0.33594l8.0625,-5.375c0.29517,-0.1968 0.54851,-0.45003 0.74545,-0.74511l5.375,-8.0625c0.39547,-0.59309 0.53911,-1.31901 0.39931,-2.01802c-0.1398,-0.69901 -0.55159,-1.31384 -1.14475,-1.70921zM113.62448,132.43698l-5.78182,3.85488l-3.81726,-3.81726c-0.25744,-0.2573 -0.56441,-0.4597 -0.90233,-0.59495l-12.16094,-4.86471l-2.04384,-8.17571l6.62704,-8.83516l14.64217,-2.09289v13.02631c0.00002,0.8985 0.44904,1.73756 1.19661,2.236l5.8265,3.88445z"></path></g></g></g></svg>