<svg xmlns="http://www.w3.org/2000/svg" x="0px" y="0px"
width="96" height="96"
viewBox="0 0 172 172"
style=" fill:#000000;"><g fill="none" fill-rule="nonzero" stroke="none" stroke-width="1" stroke-linecap="butt" stroke-linejoin="miter" stroke-miterlimit="10" stroke-dasharray="" stroke-dashoffset="0" font-family="none" font-weight="none" font-size="none" text-anchor="none" style="mix-blend-mode: normal"><path d="M0,172v-172h172v172z" fill="none"></path><g fill="#ffffff"><path d="M80.625,10.75c-38.50683,0 -69.875,31.36817 -69.875,69.875c0,38.50683 31.36817,69.875 69.875,69.875c38.50683,0 69.875,-31.36817 69.875,-69.875c0,-38.50683 -31.36817,-69.875 -69.875,-69.875zM80.625,21.5c32.71192,0 59.125,26.41308 59.125,59.125c0,32.71192 -26.41308,59.125 -59.125,59.125c-32.71192,0 -59.125,-26.41308 -59.125,-59.125c0,-32.71192 26.41308,-59.125 59.125,-59.125zM83.14453,43.33594l-7.72656,7.39063l23.55761,24.56543l-55.97558,-0.04199v10.75l55.84961,0.04199l-23.43165,24.48145l7.72656,7.39063l35.81933,-37.28906z"></path></g></g></svg>