<svg xmlns="http://www.w3.org/2000/svg" x="0px" y="0px"
width="64" height="64"
viewBox="0 0 172 172"
style=" fill:#000000;"><g fill="none" fill-rule="nonzero" stroke="none" stroke-width="1" stroke-linecap="butt" stroke-linejoin="miter" stroke-miterlimit="10" stroke-dasharray="" stroke-dashoffset="0" font-family="none" font-weight="none" font-size="none" text-anchor="none" style="mix-blend-mode: normal"><path d="M0,172v-172h172v172z" fill="#d1447a"></path><g><path d="M150.5,92.02v-12.04c-0.0723,-3.15184 -2.19585,-5.88627 -5.23167,-6.73667l-5.59,-1.57667l-5.73333,-13.90333l2.93833,-4.945c1.49698,-2.60439 1.21087,-5.86601 -0.71667,-8.17l-8.815,-8.815c-2.293,-2.15458 -5.72316,-2.56155 -8.45667,-1.00333l-4.945,2.93833l-13.61667,-5.44667l-1.36167,-5.59c-0.87252,-3.11186 -3.71988,-5.25472 -6.95167,-5.23167h-12.04c-3.15184,0.0723 -5.88627,2.19585 -6.73667,5.23167l-1.57667,5.59l-13.90333,5.73333l-4.65833,-2.93833c-2.67249,-1.63534 -6.09749,-1.34509 -8.45667,0.71667l-8.815,8.815c-2.06176,2.35917 -2.35201,5.78418 -0.71667,8.45667l2.93833,4.945l-5.73333,13.61667l-5.59,1.36167c-3.03581,0.85039 -5.15936,3.58482 -5.23167,6.73667v12.04c0.0723,3.15184 2.19585,5.88627 5.23167,6.73667l5.59,1.36167l5.73333,13.90333l-2.93833,4.945c-1.70729,2.70533 -1.41485,6.21457 0.71667,8.6l8.815,8.815c2.293,2.15458 5.72316,2.56155 8.45667,1.00333l4.945,-2.93833l13.90333,5.73333l1.36167,5.59c0.85039,3.03581 3.58482,5.15936 6.73667,5.23167h12.04c3.15184,-0.0723 5.88627,-2.19585 6.73667,-5.23167l1.36167,-5.59l13.90333,-5.73333l4.945,2.93833c2.69864,1.4876 6.04611,1.0836 8.31333,-1.00333l8.815,-8.815c2.15458,-2.293 2.56155,-5.72316 1.00333,-8.45667l-2.93833,-4.945l5.73333,-13.90333l5.59,-1.36167c2.89787,-0.94416 4.88158,-3.61786 4.945,-6.665z" fill="#ffffff"></path><circle cx="12" cy="12" transform="scale(7.16667,7.16667)" r="4.56" fill="#d1447a"></circle><path d="M92.02,157.66667h-12.04c-6.44464,-0.07708 -12.04529,-4.44618 -13.68833,-10.67833l-0.50167,-2.07833l-7.16667,-3.01l-1.79167,1.43333c-5.56754,3.27957 -12.64107,2.4284 -17.27167,-2.07833l-8.45667,-8.815c-4.62498,-4.54354 -5.62416,-11.62595 -2.43667,-17.27167l1.075,-1.79167l-3.01,-7.16667l-2.07833,-0.50167c-6.09016,-1.77621 -10.28826,-7.34452 -10.32,-13.68833v-12.04c0.08579,-6.46516 4.48944,-12.07247 10.75,-13.68833l2.07833,-0.50167l3.01,-7.16667l-1.505,-1.79167c-3.27957,-5.56754 -2.4284,-12.64107 2.07833,-17.27167l8.815,-8.45667c4.54354,-4.62498 11.62595,-5.62416 17.27167,-2.43667l1.79167,1.075l7.16667,-3.01l0.50167,-2.07833c1.77621,-6.09016 7.34452,-10.28826 13.68833,-10.32h12.04c6.44464,0.07708 12.04529,4.44618 13.68833,10.67833l0.50167,2.07833l7.16667,3.01l1.79167,-1.43333c5.56754,-3.27957 12.64107,-2.4284 17.27167,2.07833l8.45667,8.52833c4.76793,4.58861 5.77491,11.84478 2.43667,17.55833l-1.075,1.79167l3.01,7.16667l2.07833,0.50167c6.09016,1.77621 10.28826,7.34452 10.32,13.68833v12.04c-0.08579,6.46516 -4.48944,12.07247 -10.75,13.68833l-2.07833,0.50167l-3.01,7.16667l1.075,1.79167c3.27957,5.56754 2.4284,12.64107 -2.07833,17.27167l-8.45667,8.45667c-4.6306,4.50673 -11.70413,5.3579 -17.27167,2.07833l-1.79167,-1.075l-7.16667,3.01l-0.50167,2.07833c-1.63587,6.20684 -7.19879,10.56935 -13.61667,10.67833zM58.05,126.70667c0.93652,0.01132 1.86174,0.20611 2.72333,0.57333l13.90333,5.73333c2.11957,0.87671 3.69144,2.71499 4.22833,4.945l1.36167,5.59h11.75333l1.14667,-5.375c0.5369,-2.23001 2.10876,-4.06829 4.22833,-4.945l13.90333,-5.73333c2.10746,-0.86792 4.50209,-0.68167 6.45,0.50167l4.87333,2.93833l8.17,-8.45667l-3.01,-4.58667c-1.18334,-1.94791 -1.36959,-4.34254 -0.50167,-6.45l5.73333,-13.90333c0.86226,-2.10232 2.67042,-3.67116 4.87333,-4.22833l5.375,-1.29v-12.04l-5.30333,-1.14667c-2.20291,-0.55717 -4.01107,-2.12601 -4.87333,-4.22833l-5.73333,-13.90333c-0.86792,-2.10746 -0.68167,-4.50209 0.50167,-6.45l2.93833,-4.945l-8.52833,-8.09833l-4.58667,3.01c-1.94791,1.18334 -4.34254,1.36959 -6.45,0.50167l-13.90333,-5.73333c-2.09201,-0.895 -3.6347,-2.73026 -4.15667,-4.945l-1.43333,-5.375h-11.75333l-1.14667,5.375c-0.5369,2.23001 -2.10876,4.06829 -4.22833,4.945l-13.90333,5.73333c-2.10746,0.86792 -4.50209,0.68167 -6.45,-0.50167l-4.945,-3.01l-8.09833,8.52833l3.01,4.58667c1.18334,1.94791 1.36959,4.34254 0.50167,6.45l-5.73333,13.90333c-0.86226,2.10232 -2.67042,3.67116 -4.87333,4.22833l-5.44667,1.36167v11.75333l5.375,1.14667c2.20291,0.55717 4.01107,2.12601 4.87333,4.22833l5.73333,13.90333c0.86792,2.10746 0.68167,4.50209 -0.50167,6.45l-2.93833,4.945l8.45667,8.17l4.58667,-3.01c1.13297,-0.73206 2.44954,-1.12952 3.79833,-1.14667z" fill="#d1447a"></path><path d="M86,118.68c-18.04867,0 -32.68,-14.63133 -32.68,-32.68c0,-18.04867 14.63133,-32.68 32.68,-32.68c18.04867,0 32.68,14.63133 32.68,32.68c-0.03942,18.03231 -14.64769,32.64058 -32.68,32.68zM86,67.65333c-10.13258,0 -18.34667,8.21408 -18.34667,18.34667c0,10.13258 8.21408,18.34667 18.34667,18.34667c10.13258,0 18.34667,-8.21408 18.34667,-18.34667c-0.03929,-10.11627 -8.2304,-18.30738 -18.34667,-18.34667z" fill="#d1447a"></path></g></g></svg>