<svg xmlns="http://www.w3.org/2000/svg" x="0px" y="0px"
width="100" height="100"
viewBox="0 0 172 172"
style=" fill:#000000;"><g fill="none" fill-rule="nonzero" stroke="none" stroke-width="1" stroke-linecap="butt" stroke-linejoin="miter" stroke-miterlimit="10" stroke-dasharray="" stroke-dashoffset="0" font-family="none" font-weight="none" font-size="none" text-anchor="none" style="mix-blend-mode: normal"><path d="M0,172v-172h172v172z" fill="none"></path><g fill="#b13968"><path d="M51.6,27.52c-0.45408,0 -11.21532,0.04289 -18.73859,3.80281c-2.08808,1.04576 -3.33702,1.31795 -4.43438,1.55875c-3.36776,0.7396 -4.91302,1.834 -7.42422,6.85984c-3.9044,7.81224 -6.53073,8.4186 -7.24281,8.4186c-9.12976,0 -13.76,3.47096 -13.76,10.32c0,4.64744 1.39019,7.57886 4.13875,8.72094c1.47232,0.60888 4.47678,1.07495 8.25734,-2.50609c2.3392,0.42312 7.75543,5.73571 8.24391,7.54515c0,0.43688 -0.16066,1.07263 -0.32922,1.74687c-0.688,2.73824 -1.9593,7.83535 5.67062,11.65031c2.2876,1.14208 2.65127,2.60021 3.05031,4.89125c0.30616,1.73376 1.01141,5.78485 5.30109,5.78485h0.00672c1.2384,0.15824 5.02428,2.96178 7.94828,5.8789c0.64672,0.65016 1.52403,1.00781 2.43219,1.00781c0.13416,0 0.26881,-0.00983 0.40985,-0.02015c1.04576,-0.12728 1.97929,-0.72466 2.52625,-1.62594c1.83352,-3.01 3.91918,-9.46833 0.10078,-14.55953c-0.38872,-0.51944 -0.71245,-0.97174 -0.98765,-1.3639c1.24872,-0.02408 2.48798,-0.21048 3.5475,-1.26312c1.31408,-1.3072 1.30032,-2.88036 1.29,-4.54188l-0.00672,-0.70547c0,-2.21192 2.40112,-6.47752 3.44,-6.88c1.4448,0 2.73701,-0.5382 3.63485,-1.51172c0.8084,-0.88408 1.22953,-2.04218 1.22953,-3.34594c0,-3.49504 -3.54809,-8.88219 -8.10953,-8.88219h-0.02688c-0.20984,-0.0688 -0.48434,-0.30541 -0.74578,-0.60469c1.24872,-0.5676 2.21165,-1.53236 2.73453,-2.80172c1.13864,-2.74856 -0.04671,-6.24892 -3.07047,-9.23828c-0.47472,-1.19024 1.30301,-5.72475 3.61469,-9.29203c1.29688,-1.376 2.9942,-3.81754 1.94844,-6.3425c-0.33712,-0.81184 -1.46393,-2.70094 -4.64937,-2.70094zM75.68,30.96c-1.9608,0 -11.96099,0.21317 -16.19219,4.44781c-3.11664,3.1132 -6.05322,6.05408 -4.63594,9.47344c1.3588,3.27832 5.50637,3.27875 7.06813,3.27875c0.41968,0 0.68488,0.03606 0.84656,0.0739c0.09632,0.73272 -0.21081,2.36355 -0.38969,3.28547c-0.2236,1.1696 -0.45687,2.38199 -0.45687,3.52063c0,2.31512 -0.0008,5.81237 3.0436,7.07485c0.58136,0.2408 1.16207,0.35609 1.74687,0.35609c2.41832,0 4.91732,-1.95435 7.96172,-4.99875c7.30656,-7.30656 7.88781,-11.48627 7.88781,-16.19219c0,-3.35056 0,-10.32 -6.88,-10.32zM51.6739,34.31938v0.08062c-0.02064,0 -0.04311,-0.00328 -0.06719,-0.00672c0.00078,-0.00078 0.05871,-0.06526 0.06719,-0.07391zM129.61813,37.84c-8.5484,0 -18.61341,6.16313 -25.96125,10.66265c-1.19368,0.72928 -2.30442,1.41035 -3.31234,2.00891c-1.71312,-1.82664 -3.62312,-2.52389 -5.1264,-2.76813c-4.5236,-0.7224 -9.07908,2.05325 -11.8586,4.89125c-3.42624,3.49504 -2.61274,8.55808 -1.6461,11.63688c-3.29896,2.84488 -8.35796,8.02348 -7.93484,12.69844c0.2064,2.236 1.53058,4.08887 3.73562,5.21375c5.85144,2.97904 10.85234,0.6242 13.6525,-2.35828c0.23736,0.09288 0.46268,0.21769 0.645,0.38969c0.55728,0.53664 0.67188,1.57085 0.67188,2.34485c0,3.07249 1.31824,5.97449 3.25859,8.37828c-1.72511,-0.56164 -3.58245,-1.06978 -5.70422,-1.44453c-0.19952,-0.03784 -0.39501,-0.05375 -0.59797,-0.05375c-5.94776,0 -17.2,3.77088 -17.2,18.03313c0,3.11664 0.35153,7.5272 3.41313,9.86984c2.9412,2.26352 6.5167,1.29629 9.11734,0.59797c0.75336,-0.19952 1.83755,-0.48622 2.41203,-0.52406c2.26008,2.91368 2.2575,10.68873 2.2575,13.30313c0,7.94296 0.61071,12.21732 3.93719,13.53828c0.34056,0.13416 0.89091,0.29562 1.57891,0.29562c1.06296,0 2.44928,-0.38469 3.87,-1.88797c6.9488,-7.37192 11.26062,-12.77524 11.26062,-16.9514c0,-1.74064 -0.49375,-3.30697 -0.92719,-4.68297c-0.80152,-2.55592 -0.8012,-3.06768 -0.01344,-3.9036c2.64192,-2.8036 3.3863,-8.08185 1.80734,-12.84625c-0.65098,-1.96215 -2.01383,-4.59315 -4.55531,-7.14203c2.15342,0.13601 4.07636,-0.44121 5.46234,-1.85437c0.04816,-0.0516 0.09294,-0.09621 0.1411,-0.14781c3.22672,8.06336 6.31804,8.0625 7.50484,8.0625c1.90232,0 3.44,-1.53768 3.44,-3.44c0,-0.80496 0.05526,-1.43948 0.13438,-1.94172c2.82424,2.49744 6.76616,5.38172 9.90344,5.38172c2.34608,0 4.32414,-1.37692 5.3011,-3.6886c0.9632,-2.29792 0.87521,-5.23837 -0.06047,-7.91469c2.76232,-1.64432 4.37358,-4.86013 4.81734,-9.62797c2.9928,-1.07672 5.5319,-3.59636 7.00766,-7.10172c1.38976,-3.30928 1.54214,-6.67419 0.53078,-9.29203c2.73824,-2.19128 8.19558,-0.42377 8.25062,-0.40313c0.88064,0.30272 1.83831,0.23844 2.66735,-0.18812c3.9216,-2.00208 10.5014,-6.09676 10.5014,-10.99188c0,-1.32096 -0.49106,-3.78378 -3.7625,-5.45562c-5.4696,-2.79328 -21.08032,-3.54283 -29.67,-3.74235c0.13072,-0.95632 0.05015,-1.96193 -0.36953,-2.96297c-1.11112,-2.6488 -3.99776,-3.99094 -8.57984,-3.99094zM49.24172,102.65578c-1.21381,-0.01268 -2.57306,0.238 -3.89015,1.04812c-2.70384,1.67184 -4.07156,4.97258 -4.07156,9.8161c0,6.69424 1.44711,10.15074 3.05703,11.92578c-1.01136,5.17376 -3.05703,16.02422 -3.05703,19.03422c0,4.70936 4.35848,13.76 10.32,13.76c2.37016,0 3.60033,-1.05404 4.21265,-1.94844c1.3932,-2.02272 0.54857,-4.23523 -0.06719,-5.85203c-0.33368,-0.86344 -0.70547,-1.84185 -0.70547,-2.51953c0,-3.16824 0.00011,-5.45573 2.43219,-7.88781c3.8012,-3.8012 11.32781,-18.46259 11.32781,-23.07219c0,-1.376 -0.00252,-5.56431 -15.6614,-13.39719c-0.26875,-0.13115 -1.87386,-0.8859 -3.89688,-0.90703zM141.04,103.2c0,0 -6.88,3.44 -3.44,6.88c3.44,3.44 10.32,-3.44 13.76,0c3.44,3.44 3.44,6.88 6.88,6.88c3.44,0 -3.44,-10.32 -6.88,-10.32c-3.44,0 -10.32,-3.44 -10.32,-3.44zM114.9914,116.1c-0.43618,0.01339 -0.88058,0.42957 -1.2564,1.34375c0,0 -2.57828,3.44 -1.505,6.02c1.07328,2.58 -1.075,6.66672 -0.215,7.74c0.86,1.07328 3.65672,-0.64672 4.73,-6.88c0.80496,-4.67496 -0.44505,-8.2639 -1.7536,-8.22375zM149.07563,119.06297c-1.9178,0.0516 -3.96702,0.61797 -6.13422,1.69985c-9.50816,4.75408 -13.83251,11.62666 -11.02547,17.50906c3.12696,6.56696 9.44264,4.32532 12.47672,3.24516c0.8428,-0.29928 2.11388,-0.7553 2.365,-0.77938c0.50224,0.19608 1.62357,1.44727 2.29781,2.19031c1.6512,1.8232 3.66688,4.0514 6.45672,4.0514c0.23736,0 0.49138,-0.01263 0.73906,-0.04703c2.98936,-0.40936 4.46539,-3.15609 5.00547,-4.23281c2.58,-4.3688 1.75983,-9.77541 0.06047,-13.51813c-1.62024,-3.23704 -3.70112,-6.80486 -6.89344,-8.72094c-1.64088,-0.98556 -3.43032,-1.4491 -5.34812,-1.3975z"></path></g></g></svg>